<svg width="1920" height="1694" viewBox="0 0 1920 1694" fill="none" xmlns="http://www.w3.org/2000/svg">
<g opacity="0.3">
<g filter="url(#filter0_f_204_319)">
<path d="M1931.6 517.416C1931.6 618.984 1837.3 701.322 1720.98 701.322C1604.66 701.322 1510.37 618.984 1510.37 517.416C1510.37 415.848 1561.02 268.56 1720.98 268.56C1801.18 326.943 1968.32 397.732 1931.6 517.416Z" fill="#AB40FF"/>
</g>
<g filter="url(#filter1_f_204_319)">
<path d="M1874.2 544.418C1874.2 618.579 1792.75 678.699 1692.28 678.699C1591.81 678.699 1510.37 618.579 1510.37 544.418C1510.37 470.258 1591.81 357.229 1692.28 357.229C1792.75 357.229 1874.2 470.258 1874.2 544.418Z" fill="#40FFD1"/>
</g>
<g filter="url(#filter2_f_204_319)">
<ellipse cx="1624.75" cy="579.813" rx="114.382" ry="98.8856" fill="#71FF40"/>
</g>
<g filter="url(#filter3_f_204_319)">
<ellipse cx="1611.67" cy="594.044" rx="54.0257" ry="49.6253" fill="#E4FF40"/>
</g>
</g>
<g opacity="0.3">
<g filter="url(#filter4_f_204_319)">
<path d="M225.305 1610.88C108.802 1597.78 26.5243 1506.31 41.533 1406.59C56.5417 1306.88 163.153 1236.66 279.657 1249.77C396.16 1262.87 558.571 1325.3 537.93 1462.43C460.615 1523.65 357.851 1657.81 225.305 1610.88Z" fill="#AB40FF"/>
</g>
<g filter="url(#filter5_f_204_319)">
<path d="M201.739 1558.19C116.673 1548.62 58.2228 1471.04 71.1862 1384.91C84.1497 1298.78 163.618 1236.71 248.684 1246.28C333.75 1255.85 452.89 1340.26 439.927 1426.39C426.963 1512.52 286.805 1567.76 201.739 1558.19Z" fill="#40FFD1"/>
</g>
<g filter="url(#filter6_f_204_319)">
<ellipse cx="99.1635" cy="114.142" rx="99.1635" ry="114.142" transform="matrix(-0.148832 0.988862 -0.993733 -0.111783 321.511 1254.47)" fill="#71FF40"/>
</g>
<g filter="url(#filter7_f_204_319)">
<ellipse cx="46.8374" cy="57.2815" rx="46.8374" ry="57.2815" transform="matrix(-0.148832 0.988862 -0.993733 -0.111783 242.584 1286.81)" fill="#E4FF40"/>
</g>
</g>
<g opacity="0.3">
<g filter="url(#filter8_f_204_319)">
<path d="M1098.76 861.888C1029.84 854.135 982.769 789.4 993.621 717.298C1004.47 645.196 1069.14 593.031 1138.06 600.783C1206.98 608.536 1302.2 651.174 1287.28 750.331C1240.18 795.584 1176.55 893.785 1098.76 861.888Z" fill="#AB40FF"/>
</g>
<g filter="url(#filter9_f_204_319)">
<path d="M1085.8 824.246C1035.47 818.585 1002.28 763.511 1011.65 701.234C1021.02 638.958 1069.42 593.062 1119.74 598.722C1170.06 604.383 1239.16 663.496 1229.79 725.772C1220.41 788.049 1136.12 829.906 1085.8 824.246Z" fill="#40FFD1"/>
</g>
<g filter="url(#filter10_f_204_319)">
<ellipse cx="71.6997" cy="67.5235" rx="71.6997" ry="67.5235" transform="matrix(-0.148832 0.988862 -0.993733 -0.111783 1162.82 603.568)" fill="#71FF40"/>
</g>
<g filter="url(#filter11_f_204_319)">
<ellipse cx="33.8655" cy="33.8863" rx="33.8655" ry="33.8863" transform="matrix(-0.148832 0.988862 -0.993733 -0.111783 1115.33 628.025)" fill="#E4FF40"/>
</g>
</g>
<g opacity="0.3" filter="url(#filter12_f_204_319)">
<path d="M1794.79 1389.98C1749.12 1449.97 1372.42 1200.78 1357.1 1114.93C1341.79 1029.09 1427.38 977.453 1526.67 964.215C1625.97 950.978 1992.12 932.808 1971.28 1048.19C1869.42 1126.01 1754.59 1164.58 1794.79 1389.98Z" fill="#AB40FF"/>
<path d="M1697.36 1277.07C1612.57 1288.37 1409.49 1190.74 1396.42 1117.45C1383.34 1044.15 1441.47 975.573 1526.25 964.271C1611.03 952.968 1858.64 998.511 1871.71 1071.81C1884.79 1145.1 1680.23 1063.74 1697.36 1277.07Z" fill="#FF40B3"/>
<path d="M1524.64 1187.48C1462.21 1195.81 1399.8 1136.44 1390.18 1082.47C1380.55 1028.49 1423.36 977.988 1485.79 969.665C1548.22 961.342 1673.53 1042.97 1683.16 1096.94C1692.79 1150.92 1587.08 1179.16 1524.64 1187.48Z" fill="#FF4040"/>
<path d="M1455.72 1119.51C1413.33 1125.16 1391.12 1087.74 1384.58 1051.09C1378.04 1014.44 1421.71 978.208 1464.1 972.557C1506.49 966.906 1591.93 1033.19 1598.47 1069.84C1605 1106.48 1498.11 1113.86 1455.72 1119.51Z" fill="#FFD540"/>
</g>
<g opacity="0.3" filter="url(#filter13_f_204_319)">
<path d="M436.854 948.557C413.244 985.125 209.236 881.022 199.743 827.8C190.25 774.579 235.397 743.617 288.474 736.541C341.55 729.465 466.581 708.276 457.116 779.354C447.651 850.432 502.236 847.293 436.854 948.557Z" fill="#AB40FF"/>
<path d="M375.004 908.507C329.686 914.548 240.292 897.435 232.186 851.993C224.081 806.551 254.247 764.815 299.566 758.774C344.884 752.732 413.483 776.804 421.589 822.246C429.694 867.688 420.322 902.465 375.004 908.507Z" fill="#FF40B3"/>
<path d="M302.025 896.704C268.653 901.153 234.287 863.769 228.318 830.305C222.349 796.841 244.564 766.106 277.937 761.657C311.31 757.208 379.756 809.047 385.726 842.512C391.695 875.976 335.398 892.255 302.025 896.704Z" fill="#FF4040"/>
<path d="M264.034 853.928C241.375 856.949 228.901 833.574 224.848 810.853C220.795 788.132 243.683 766.224 266.342 763.203C289.001 760.182 295.755 789.687 299.808 812.408C303.861 835.129 286.693 850.907 264.034 853.928Z" fill="#FF9C40"/>
</g>
<g opacity="0.3" filter="url(#filter14_f_204_319)">
<path d="M1307.17 1614.12C1283.56 1650.69 1079.56 1546.58 1070.06 1493.36C1060.57 1440.14 1105.72 1409.18 1158.79 1402.1C1211.87 1395.03 1336.9 1373.84 1327.44 1444.92C1317.97 1515.99 1372.56 1512.86 1307.17 1614.12Z" fill="#AB40FF"/>
<path d="M1245.32 1574.07C1200.01 1580.11 1110.61 1563 1102.51 1517.56C1094.4 1472.11 1124.57 1430.38 1169.89 1424.34C1215.2 1418.29 1283.8 1442.37 1291.91 1487.81C1300.01 1533.25 1290.64 1568.03 1245.32 1574.07Z" fill="#FF40B3"/>
<path d="M1172.35 1562.27C1138.97 1566.72 1104.61 1529.33 1098.64 1495.87C1092.67 1462.4 1114.88 1431.67 1148.26 1427.22C1181.63 1422.77 1250.08 1474.61 1256.05 1508.07C1262.01 1541.54 1205.72 1557.82 1172.35 1562.27Z" fill="#FF4040"/>
<path d="M1134.35 1519.49C1111.69 1522.51 1099.22 1499.14 1095.17 1476.42C1091.12 1453.69 1114 1431.79 1136.66 1428.77C1159.32 1425.74 1166.08 1455.25 1170.13 1477.97C1174.18 1500.69 1157.01 1516.47 1134.35 1519.49Z" fill="#FF9C40"/>
</g>
<g opacity="0.3" filter="url(#filter15_f_204_319)">
<path d="M-179.217 322.349C-224.289 262.019 191.43 64.5571 288.463 87.0753C385.497 109.593 405.627 198.126 379.58 282.013C353.533 365.9 225.049 662.875 111.332 599.838C70.056 487.873 75.5607 381.474 -179.217 322.349Z" fill="#AB40FF"/>
<path d="M-20.4042 290.821C1.83556 219.196 187.095 97.9318 269.945 117.158C352.795 136.385 401.929 210.035 379.689 281.66C357.45 353.286 209.358 530.779 126.508 511.552C43.6582 492.325 212.298 363.336 -20.4042 290.821Z" fill="#FF40B3"/>
<path d="M144.087 190.338C160.464 137.592 248.475 112.176 309.486 126.335C370.498 140.494 406.681 194.731 390.304 247.476C373.926 300.222 236.98 366.419 175.969 352.26C114.957 338.102 127.709 243.083 144.087 190.338Z" fill="#FF4040"/>
<path d="M243.838 163.238C254.958 127.425 303.527 124.952 344.951 134.565C386.376 144.178 407.114 193.338 395.994 229.151C384.874 264.963 280.251 305.81 238.826 296.197C197.401 286.584 232.718 199.05 243.838 163.238Z" fill="#FFD540"/>
</g>
<defs>
<filter id="filter0_f_204_319" x="1437.37" y="195.56" width="572.428" height="578.762" filterUnits="userSpaceOnUse" color-interpolation-filters="sRGB">
<feFlood flood-opacity="0" result="BackgroundImageFix"/>
<feBlend mode="normal" in="SourceGraphic" in2="BackgroundImageFix" result="shape"/>
<feGaussianBlur stdDeviation="36.5" result="effect1_foregroundBlur_204_319"/>
</filter>
<filter id="filter1_f_204_319" x="1437.37" y="284.229" width="509.829" height="467.47" filterUnits="userSpaceOnUse" color-interpolation-filters="sRGB">
<feFlood flood-opacity="0" result="BackgroundImageFix"/>
<feBlend mode="normal" in="SourceGraphic" in2="BackgroundImageFix" result="shape"/>
<feGaussianBlur stdDeviation="36.5" result="effect1_foregroundBlur_204_319"/>
</filter>
<filter id="filter2_f_204_319" x="1437.37" y="407.927" width="374.765" height="343.771" filterUnits="userSpaceOnUse" color-interpolation-filters="sRGB">
<feFlood flood-opacity="0" result="BackgroundImageFix"/>
<feBlend mode="normal" in="SourceGraphic" in2="BackgroundImageFix" result="shape"/>
<feGaussianBlur stdDeviation="36.5" result="effect1_foregroundBlur_204_319"/>
</filter>
<filter id="filter3_f_204_319" x="1484.64" y="471.418" width="254.051" height="245.25" filterUnits="userSpaceOnUse" color-interpolation-filters="sRGB">
<feFlood flood-opacity="0" result="BackgroundImageFix"/>
<feBlend mode="normal" in="SourceGraphic" in2="BackgroundImageFix" result="shape"/>
<feGaussianBlur stdDeviation="36.5" result="effect1_foregroundBlur_204_319"/>
</filter>
<filter id="filter4_f_204_319" x="-33.2336" y="1175.19" width="645.953" height="518.456" filterUnits="userSpaceOnUse" color-interpolation-filters="sRGB">
<feFlood flood-opacity="0" result="BackgroundImageFix"/>
<feBlend mode="normal" in="SourceGraphic" in2="BackgroundImageFix" result="shape"/>
<feGaussianBlur stdDeviation="36.5" result="effect1_foregroundBlur_204_319"/>
</filter>
<filter id="filter5_f_204_319" x="-3.61365" y="1172.31" width="517.515" height="459.955" filterUnits="userSpaceOnUse" color-interpolation-filters="sRGB">
<feFlood flood-opacity="0" result="BackgroundImageFix"/>
<feBlend mode="normal" in="SourceGraphic" in2="BackgroundImageFix" result="shape"/>
<feGaussianBlur stdDeviation="36.5" result="effect1_foregroundBlur_204_319"/>
</filter>
<filter id="filter6_f_204_319" x="5.93099" y="1167.88" width="374.79" height="343.793" filterUnits="userSpaceOnUse" color-interpolation-filters="sRGB">
<feFlood flood-opacity="0" result="BackgroundImageFix"/>
<feBlend mode="normal" in="SourceGraphic" in2="BackgroundImageFix" result="shape"/>
<feGaussianBlur stdDeviation="36.5" result="effect1_foregroundBlur_204_319"/>
</filter>
<filter id="filter7_f_204_319" x="48.3376" y="1206.96" width="260.707" height="239.523" filterUnits="userSpaceOnUse" color-interpolation-filters="sRGB">
<feFlood flood-opacity="0" result="BackgroundImageFix"/>
<feBlend mode="normal" in="SourceGraphic" in2="BackgroundImageFix" result="shape"/>
<feGaussianBlur stdDeviation="36.5" result="effect1_foregroundBlur_204_319"/>
</filter>
<filter id="filter8_f_204_319" x="919.065" y="527.02" width="442.774" height="414.124" filterUnits="userSpaceOnUse" color-interpolation-filters="sRGB">
<feFlood flood-opacity="0" result="BackgroundImageFix"/>
<feBlend mode="normal" in="SourceGraphic" in2="BackgroundImageFix" result="shape"/>
<feGaussianBlur stdDeviation="36.5" result="effect1_foregroundBlur_204_319"/>
</filter>
<filter id="filter9_f_204_319" x="937.066" y="525.25" width="366.583" height="372.507" filterUnits="userSpaceOnUse" color-interpolation-filters="sRGB">
<feFlood flood-opacity="0" result="BackgroundImageFix"/>
<feBlend mode="normal" in="SourceGraphic" in2="BackgroundImageFix" result="shape"/>
<feGaussianBlur stdDeviation="36.5" result="effect1_foregroundBlur_204_319"/>
</filter>
<filter id="filter10_f_204_319" x="944.097" y="522.614" width="281.907" height="288.615" filterUnits="userSpaceOnUse" color-interpolation-filters="sRGB">
<feFlood flood-opacity="0" result="BackgroundImageFix"/>
<feBlend mode="normal" in="SourceGraphic" in2="BackgroundImageFix" result="shape"/>
<feGaussianBlur stdDeviation="36.5" result="effect1_foregroundBlur_204_319"/>
</filter>
<filter id="filter11_f_204_319" x="969.561" y="551.021" width="214.107" height="213.41" filterUnits="userSpaceOnUse" color-interpolation-filters="sRGB">
<feFlood flood-opacity="0" result="BackgroundImageFix"/>
<feBlend mode="normal" in="SourceGraphic" in2="BackgroundImageFix" result="shape"/>
<feGaussianBlur stdDeviation="36.5" result="effect1_foregroundBlur_204_319"/>
</filter>
<filter id="filter12_f_204_319" x="1298.32" y="897.439" width="730.81" height="558.755" filterUnits="userSpaceOnUse" color-interpolation-filters="sRGB">
<feFlood flood-opacity="0" result="BackgroundImageFix"/>
<feBlend mode="normal" in="SourceGraphic" in2="BackgroundImageFix" result="shape"/>
<feGaussianBlur stdDeviation="28.5" result="effect1_foregroundBlur_204_319"/>
</filter>
<filter id="filter13_f_204_319" x="141.474" y="671.038" width="385.053" height="342.138" filterUnits="userSpaceOnUse" color-interpolation-filters="sRGB">
<feFlood flood-opacity="0" result="BackgroundImageFix"/>
<feBlend mode="normal" in="SourceGraphic" in2="BackgroundImageFix" result="shape"/>
<feGaussianBlur stdDeviation="28.5" result="effect1_foregroundBlur_204_319"/>
</filter>
<filter id="filter14_f_204_319" x="1011.79" y="1336.6" width="385.053" height="342.138" filterUnits="userSpaceOnUse" color-interpolation-filters="sRGB">
<feFlood flood-opacity="0" result="BackgroundImageFix"/>
<feBlend mode="normal" in="SourceGraphic" in2="BackgroundImageFix" result="shape"/>
<feGaussianBlur stdDeviation="28.5" result="effect1_foregroundBlur_204_319"/>
</filter>
<filter id="filter15_f_204_319" x="-239.621" y="28.2954" width="695.588" height="637.252" filterUnits="userSpaceOnUse" color-interpolation-filters="sRGB">
<feFlood flood-opacity="0" result="BackgroundImageFix"/>
<feBlend mode="normal" in="SourceGraphic" in2="BackgroundImageFix" result="shape"/>
<feGaussianBlur stdDeviation="28.5" result="effect1_foregroundBlur_204_319"/>
</filter>
</defs>
</svg>
