<svg width="118" height="129" viewBox="0 0 118 129" fill="none" xmlns="http://www.w3.org/2000/svg">
<path d="M5.92904 121.308L5.08393 125.5H9.36H97.52H100.379L100.949 122.699L106.069 97.579L106.925 93.38H102.64H70.4968L86.18 81.4401C93.2095 76.2476 98.7965 71.3449 102.854 66.7271C106.981 62.1511 110.02 57.5928 111.816 53.0451L111.821 53.0308L111.827 53.0164C113.582 48.4534 114.46 43.7073 114.46 38.8C114.46 31.9988 112.475 25.9122 108.469 20.6848C104.534 15.4446 99.1674 11.4192 92.5156 8.55028C85.9082 5.6543 78.3218 4.26001 69.84 4.26001C62.5789 4.26001 55.5727 5.2661 48.8343 7.28762L48.8265 7.28996L48.8187 7.29234C42.1956 9.31293 36.2474 12.1926 31.0057 15.9519C25.8573 19.6141 21.7283 23.9558 18.6849 28.989L16.9491 31.8598L19.7438 33.7157L40.2238 47.3157L42.9018 49.094L44.9009 46.5766C47.5038 43.2989 50.4334 40.8626 53.6807 39.1925C56.898 37.5379 60.3995 36.7 64.24 36.7C68.5454 36.7 71.1243 37.5949 72.5837 38.7889L72.613 38.8129L72.6429 38.8363C74.2557 40.0984 74.98 41.592 74.98 43.6C74.98 45.1116 74.6664 46.6672 73.9881 48.2889C73.3575 49.6933 72.1098 51.4826 70.0283 53.6633L70.0255 53.6662C68.0612 55.7287 65.1752 58.2721 61.3009 61.3096L11.2415 99.374L10.1901 100.173L9.92904 101.468L5.92904 121.308Z" stroke="url(#paint0_radial_401_240)" stroke-width="7"/>
<defs>
<radialGradient id="paint0_radial_401_240" cx="0" cy="0" r="1" gradientUnits="userSpaceOnUse" gradientTransform="translate(63 -40) rotate(90) scale(224.5 130.095)">
<stop stop-color="white"/>
<stop offset="0.438264" stop-color="white" stop-opacity="0.483043"/>
<stop offset="1" stop-color="white" stop-opacity="0"/>
</radialGradient>
</defs>
</svg>
