<svg width="1920" height="2294" viewBox="0 0 1920 2294" fill="none" xmlns="http://www.w3.org/2000/svg">
<g opacity="0.3">
<g filter="url(#filter0_f_204_282)">
<path d="M2153 709C2153 848.176 2041.3 961 1903.5 961C1765.7 961 1654 848.176 1654 709C1654 569.824 1714 368 1903.5 368C1998.5 448 2196.5 545 2153 709Z" fill="#AB40FF"/>
</g>
<g filter="url(#filter1_f_204_282)">
<path d="M2085 746C2085 847.62 1988.52 930 1869.5 930C1750.48 930 1654 847.62 1654 746C1654 644.38 1750.48 489.5 1869.5 489.5C1988.52 489.5 2085 644.38 2085 746Z" fill="#40FFD1"/>
</g>
<g filter="url(#filter2_f_204_282)">
<circle cx="1789.5" cy="794.5" r="135.5" fill="#71FF40"/>
</g>
<g filter="url(#filter3_f_204_282)">
<ellipse cx="1774" cy="814" rx="64" ry="68" fill="#E4FF40"/>
</g>
</g>
<g opacity="0.3">
<g filter="url(#filter4_f_204_282)">
<path d="M131.688 2207.34C-6.32454 2189.39 -103.792 2064.06 -86.0128 1927.41C-68.2332 1790.77 58.0611 1694.56 196.073 1712.52C334.086 1730.47 526.481 1816.01 502.03 2003.93C410.441 2087.81 288.704 2271.64 131.688 2207.34Z" fill="#AB40FF"/>
</g>
<g filter="url(#filter5_f_204_282)">
<path d="M103.771 2135.14C3.00015 2122.03 -66.2417 2015.72 -50.885 1897.7C-35.5283 1779.68 58.6118 1694.63 159.383 1707.74C260.154 1720.85 401.289 1836.51 385.933 1954.54C370.576 2072.56 204.542 2148.25 103.771 2135.14Z" fill="#40FFD1"/>
</g>
<g filter="url(#filter6_f_204_282)">
<circle cx="93.8047" cy="1835.85" r="135.5" transform="rotate(97.4135 93.8047 1835.85)" fill="#71FF40"/>
</g>
<g filter="url(#filter7_f_204_282)">
<ellipse cx="76.4676" cy="1817.96" rx="64" ry="68" transform="rotate(97.4135 76.4676 1817.96)" fill="#E4FF40"/>
</g>
</g>
<g opacity="0.3">
<g filter="url(#filter8_f_204_282)">
<path d="M1166.41 1181.02C1084.76 1170.4 1029 1081.69 1041.85 982.892C1054.71 884.093 1131.31 812.612 1212.96 823.235C1294.6 833.859 1407.4 892.284 1389.72 1028.16C1333.93 1090.16 1258.55 1224.73 1166.41 1181.02Z" fill="#AB40FF"/>
</g>
<g filter="url(#filter9_f_204_282)">
<path d="M1151.04 1129.44C1091.43 1121.68 1052.11 1046.22 1063.21 960.88C1074.31 875.544 1131.64 812.654 1191.25 820.411C1250.87 828.168 1332.72 909.168 1321.62 994.504C1310.52 1079.84 1210.66 1137.2 1151.04 1129.44Z" fill="#40FFD1"/>
</g>
<g filter="url(#filter10_f_204_282)">
<ellipse cx="1150.16" cy="913.863" rx="97.9726" ry="80.1585" transform="rotate(97.4135 1150.16 913.863)" fill="#71FF40"/>
</g>
<g filter="url(#filter11_f_204_282)">
<ellipse cx="1140.17" cy="901.261" rx="46.2749" ry="40.2271" transform="rotate(97.4135 1140.17 901.261)" fill="#E4FF40"/>
</g>
</g>
<g opacity="0.3" filter="url(#filter12_f_204_282)">
<path d="M1990.94 1904.64C1936.83 1986.85 1490.58 1645.39 1472.44 1527.76C1454.3 1410.13 1555.69 1339.37 1673.31 1321.24C1790.94 1303.1 2224.7 1278.2 2200 1436.31C2079.35 1542.94 1943.31 1595.79 1990.94 1904.64Z" fill="#AB40FF"/>
<path d="M1875.51 1749.93C1775.08 1765.41 1534.5 1631.64 1519.01 1531.2C1503.52 1430.77 1572.39 1336.8 1672.82 1321.31C1773.25 1305.82 2066.57 1368.23 2082.06 1468.66C2097.54 1569.1 1855.22 1457.6 1875.51 1749.93Z" fill="#FF40B3"/>
<path d="M1670.91 1627.18C1596.95 1638.58 1523.02 1557.23 1511.62 1483.27C1500.21 1409.31 1550.93 1340.11 1624.89 1328.7C1698.85 1317.3 1847.29 1429.15 1858.7 1503.11C1870.1 1577.07 1744.87 1615.77 1670.91 1627.18Z" fill="#FF4040"/>
<path d="M1589.26 1534.03C1539.05 1541.77 1512.73 1490.5 1504.99 1440.28C1497.25 1390.06 1548.97 1340.41 1599.19 1332.67C1649.41 1324.92 1750.62 1415.75 1758.36 1465.96C1766.11 1516.18 1639.48 1526.29 1589.26 1534.03Z" fill="#FFD540"/>
</g>
<g opacity="0.3" filter="url(#filter13_f_204_282)">
<path d="M382.293 1299.78C354.324 1349.89 112.652 1207.24 101.406 1134.31C90.1603 1061.38 143.643 1018.96 206.519 1009.26C269.394 999.565 417.508 970.53 406.296 1067.93C395.084 1165.32 459.746 1161.02 382.293 1299.78Z" fill="#AB40FF"/>
<path d="M309.024 1244.9C255.339 1253.18 149.441 1229.73 139.839 1167.46C130.237 1105.19 165.973 1048 219.658 1039.72C273.343 1031.45 354.607 1064.43 364.209 1126.7C373.811 1188.97 362.709 1236.62 309.024 1244.9Z" fill="#FF40B3"/>
<path d="M222.572 1228.73C183.038 1234.82 142.328 1183.6 135.256 1137.74C128.185 1091.89 154.502 1049.77 194.036 1043.68C233.57 1037.58 314.654 1108.61 321.725 1154.47C328.796 1200.32 262.106 1222.63 222.572 1228.73Z" fill="#FF4040"/>
<path d="M177.567 1170.11C150.724 1174.25 135.947 1142.22 131.146 1111.09C126.345 1079.95 153.458 1049.93 180.301 1045.79C207.143 1041.65 215.144 1082.08 219.945 1113.22C224.746 1144.35 204.409 1165.97 177.567 1170.11Z" fill="#FF9C40"/>
</g>
<g opacity="0.3" filter="url(#filter14_f_204_282)">
<path d="M1413.29 2211.78C1385.32 2261.89 1143.65 2119.24 1132.41 2046.31C1121.16 1973.38 1174.64 1930.96 1237.52 1921.26C1300.39 1911.56 1448.51 1882.53 1437.3 1979.93C1426.08 2077.32 1490.75 2073.02 1413.29 2211.78Z" fill="#AB40FF"/>
<path d="M1340.02 2156.9C1286.34 2165.18 1180.44 2141.73 1170.84 2079.46C1161.24 2017.19 1196.97 1960 1250.66 1951.72C1304.34 1943.45 1385.61 1976.43 1395.21 2038.7C1404.81 2100.97 1393.71 2148.62 1340.02 2156.9Z" fill="#FF40B3"/>
<path d="M1253.57 2140.73C1214.04 2146.82 1173.33 2095.6 1166.26 2049.74C1159.19 2003.89 1185.5 1961.77 1225.04 1955.68C1264.57 1949.58 1345.65 2020.61 1352.73 2066.47C1359.8 2112.32 1293.11 2134.63 1253.57 2140.73Z" fill="#FF4040"/>
<path d="M1208.57 2082.11C1181.72 2086.25 1166.95 2054.22 1162.15 2023.09C1157.35 1991.95 1184.46 1961.93 1211.3 1957.79C1238.14 1953.65 1246.14 1994.08 1250.95 2025.22C1255.75 2056.35 1235.41 2077.97 1208.57 2082.11Z" fill="#FF9C40"/>
</g>
<g opacity="0.3" filter="url(#filter15_f_204_282)">
<path d="M-347.518 441.706C-400.911 359.037 91.558 88.4609 206.506 119.317C321.454 150.173 345.301 271.486 314.445 386.434C283.589 501.382 131.384 908.318 -3.32776 821.94C-52.2239 668.518 -45.7029 522.723 -347.518 441.706Z" fill="#AB40FF"/>
<path d="M-159.385 398.503C-133.039 300.357 86.423 134.193 184.569 160.539C282.715 186.885 340.92 287.805 314.575 385.951C288.229 484.097 112.796 727.31 14.6505 700.965C-83.4953 674.619 116.279 497.868 -159.385 398.503Z" fill="#FF40B3"/>
<path d="M35.4742 260.814C54.8756 188.538 159.135 153.712 231.411 173.113C303.686 192.514 346.55 266.833 327.148 339.109C307.747 411.385 145.518 502.093 73.2424 482.692C0.966492 463.29 16.0729 333.09 35.4742 260.814Z" fill="#FF4040"/>
<path d="M153.642 223.68C166.815 174.607 224.35 171.218 273.423 184.391C322.496 197.563 347.062 264.925 333.889 313.998C320.716 363.071 196.778 419.043 147.705 405.87C98.632 392.697 140.469 272.753 153.642 223.68Z" fill="#FFD540"/>
</g>
<defs>
<filter id="filter0_f_204_282" x="1581" y="295" width="651.156" height="739" filterUnits="userSpaceOnUse" color-interpolation-filters="sRGB">
<feFlood flood-opacity="0" result="BackgroundImageFix"/>
<feBlend mode="normal" in="SourceGraphic" in2="BackgroundImageFix" result="shape"/>
<feGaussianBlur stdDeviation="36.5" result="effect1_foregroundBlur_204_282"/>
</filter>
<filter id="filter1_f_204_282" x="1581" y="416.5" width="577" height="586.5" filterUnits="userSpaceOnUse" color-interpolation-filters="sRGB">
<feFlood flood-opacity="0" result="BackgroundImageFix"/>
<feBlend mode="normal" in="SourceGraphic" in2="BackgroundImageFix" result="shape"/>
<feGaussianBlur stdDeviation="36.5" result="effect1_foregroundBlur_204_282"/>
</filter>
<filter id="filter2_f_204_282" x="1581" y="586" width="417" height="417" filterUnits="userSpaceOnUse" color-interpolation-filters="sRGB">
<feFlood flood-opacity="0" result="BackgroundImageFix"/>
<feBlend mode="normal" in="SourceGraphic" in2="BackgroundImageFix" result="shape"/>
<feGaussianBlur stdDeviation="36.5" result="effect1_foregroundBlur_204_282"/>
</filter>
<filter id="filter3_f_204_282" x="1637" y="673" width="274" height="282" filterUnits="userSpaceOnUse" color-interpolation-filters="sRGB">
<feFlood flood-opacity="0" result="BackgroundImageFix"/>
<feBlend mode="normal" in="SourceGraphic" in2="BackgroundImageFix" result="shape"/>
<feGaussianBlur stdDeviation="36.5" result="effect1_foregroundBlur_204_282"/>
</filter>
<filter id="filter4_f_204_282" x="-161.106" y="1637.36" width="738.255" height="656.365" filterUnits="userSpaceOnUse" color-interpolation-filters="sRGB">
<feFlood flood-opacity="0" result="BackgroundImageFix"/>
<feBlend mode="normal" in="SourceGraphic" in2="BackgroundImageFix" result="shape"/>
<feGaussianBlur stdDeviation="36.5" result="effect1_foregroundBlur_204_282"/>
</filter>
<filter id="filter5_f_204_282" x="-126.017" y="1633.41" width="586.105" height="576.202" filterUnits="userSpaceOnUse" color-interpolation-filters="sRGB">
<feFlood flood-opacity="0" result="BackgroundImageFix"/>
<feBlend mode="normal" in="SourceGraphic" in2="BackgroundImageFix" result="shape"/>
<feGaussianBlur stdDeviation="36.5" result="effect1_foregroundBlur_204_282"/>
</filter>
<filter id="filter6_f_204_282" x="-114.71" y="1627.34" width="417.03" height="417.03" filterUnits="userSpaceOnUse" color-interpolation-filters="sRGB">
<feFlood flood-opacity="0" result="BackgroundImageFix"/>
<feBlend mode="normal" in="SourceGraphic" in2="BackgroundImageFix" result="shape"/>
<feGaussianBlur stdDeviation="36.5" result="effect1_foregroundBlur_204_282"/>
</filter>
<filter id="filter7_f_204_282" x="-64.4746" y="1680.89" width="281.885" height="274.153" filterUnits="userSpaceOnUse" color-interpolation-filters="sRGB">
<feFlood flood-opacity="0" result="BackgroundImageFix"/>
<feBlend mode="normal" in="SourceGraphic" in2="BackgroundImageFix" result="shape"/>
<feGaussianBlur stdDeviation="36.5" result="effect1_foregroundBlur_204_282"/>
</filter>
<filter id="filter8_f_204_282" x="967.008" y="749.189" width="497.565" height="513.402" filterUnits="userSpaceOnUse" color-interpolation-filters="sRGB">
<feFlood flood-opacity="0" result="BackgroundImageFix"/>
<feBlend mode="normal" in="SourceGraphic" in2="BackgroundImageFix" result="shape"/>
<feGaussianBlur stdDeviation="36.5" result="effect1_foregroundBlur_204_282"/>
</filter>
<filter id="filter9_f_204_282" x="988.333" y="746.764" width="407.307" height="456.375" filterUnits="userSpaceOnUse" color-interpolation-filters="sRGB">
<feFlood flood-opacity="0" result="BackgroundImageFix"/>
<feBlend mode="normal" in="SourceGraphic" in2="BackgroundImageFix" result="shape"/>
<feGaussianBlur stdDeviation="36.5" result="effect1_foregroundBlur_204_282"/>
</filter>
<filter id="filter10_f_204_282" x="996.661" y="743.152" width="306.998" height="341.421" filterUnits="userSpaceOnUse" color-interpolation-filters="sRGB">
<feFlood flood-opacity="0" result="BackgroundImageFix"/>
<feBlend mode="normal" in="SourceGraphic" in2="BackgroundImageFix" result="shape"/>
<feGaussianBlur stdDeviation="36.5" result="effect1_foregroundBlur_204_282"/>
</filter>
<filter id="filter11_f_204_282" x="1026.83" y="782.076" width="226.681" height="238.37" filterUnits="userSpaceOnUse" color-interpolation-filters="sRGB">
<feFlood flood-opacity="0" result="BackgroundImageFix"/>
<feBlend mode="normal" in="SourceGraphic" in2="BackgroundImageFix" result="shape"/>
<feGaussianBlur stdDeviation="36.5" result="effect1_foregroundBlur_204_282"/>
</filter>
<filter id="filter12_f_204_282" x="1413.33" y="1250.84" width="844.687" height="723.435" filterUnits="userSpaceOnUse" color-interpolation-filters="sRGB">
<feFlood flood-opacity="0" result="BackgroundImageFix"/>
<feBlend mode="normal" in="SourceGraphic" in2="BackgroundImageFix" result="shape"/>
<feGaussianBlur stdDeviation="28.5" result="effect1_foregroundBlur_204_282"/>
</filter>
<filter id="filter13_f_204_282" x="42.9024" y="940.608" width="435.095" height="426.61" filterUnits="userSpaceOnUse" color-interpolation-filters="sRGB">
<feFlood flood-opacity="0" result="BackgroundImageFix"/>
<feBlend mode="normal" in="SourceGraphic" in2="BackgroundImageFix" result="shape"/>
<feGaussianBlur stdDeviation="28.5" result="effect1_foregroundBlur_204_282"/>
</filter>
<filter id="filter14_f_204_282" x="1073.9" y="1852.61" width="435.095" height="426.61" filterUnits="userSpaceOnUse" color-interpolation-filters="sRGB">
<feFlood flood-opacity="0" result="BackgroundImageFix"/>
<feBlend mode="normal" in="SourceGraphic" in2="BackgroundImageFix" result="shape"/>
<feGaussianBlur stdDeviation="28.5" result="effect1_foregroundBlur_204_282"/>
</filter>
<filter id="filter15_f_204_282" x="-408.55" y="59.8779" width="802.962" height="830.997" filterUnits="userSpaceOnUse" color-interpolation-filters="sRGB">
<feFlood flood-opacity="0" result="BackgroundImageFix"/>
<feBlend mode="normal" in="SourceGraphic" in2="BackgroundImageFix" result="shape"/>
<feGaussianBlur stdDeviation="28.5" result="effect1_foregroundBlur_204_282"/>
</filter>
</defs>
</svg>
