<svg width="35" height="27" viewBox="0 0 35 27" fill="none" xmlns="http://www.w3.org/2000/svg">
<path d="M34.375 13.5C34.375 13.873 34.2268 14.2306 33.9631 14.4944C33.6994 14.7581 33.3417 14.9062 32.9688 14.9062H2.03125C1.65829 14.9062 1.3006 14.7581 1.03688 14.4944C0.773158 14.2306 0.625 13.873 0.625 13.5C0.625 13.127 0.773158 12.7694 1.03688 12.5056C1.3006 12.2419 1.65829 12.0938 2.03125 12.0938H32.9688C33.3417 12.0938 33.6994 12.2419 33.9631 12.5056C34.2268 12.7694 34.375 13.127 34.375 13.5ZM2.03125 3.65625H32.9688C33.3417 3.65625 33.6994 3.50809 33.9631 3.24437C34.2268 2.98065 34.375 2.62296 34.375 2.25C34.375 1.87704 34.2268 1.51935 33.9631 1.25563C33.6994 0.991908 33.3417 0.84375 32.9688 0.84375H2.03125C1.65829 0.84375 1.3006 0.991908 1.03688 1.25563C0.773158 1.51935 0.625 1.87704 0.625 2.25C0.625 2.62296 0.773158 2.98065 1.03688 3.24437C1.3006 3.50809 1.65829 3.65625 2.03125 3.65625ZM32.9688 23.3438H2.03125C1.65829 23.3438 1.3006 23.4919 1.03688 23.7556C0.773158 24.0194 0.625 24.377 0.625 24.75C0.625 25.123 0.773158 25.4806 1.03688 25.7444C1.3006 26.0081 1.65829 26.1562 2.03125 26.1562H32.9688C33.3417 26.1562 33.6994 26.0081 33.9631 25.7444C34.2268 25.4806 34.375 25.123 34.375 24.75C34.375 24.377 34.2268 24.0194 33.9631 23.7556C33.6994 23.4919 33.3417 23.3438 32.9688 23.3438Z" fill="white"/>
</svg>
