<svg width="113" height="195" viewBox="0 0 113 195" fill="none" xmlns="http://www.w3.org/2000/svg">
<g filter="url(#filter0_d_37_186)">
<mask id="path-1-outside-1_37_186" maskUnits="userSpaceOnUse" x="2" y="36" width="101" height="126" fill="black">
<rect fill="white" x="2" y="36" width="101" height="126"/>
<path d="M35.68 155L55.68 54.52L66.72 67.48H30.88L36 43H89.76L67.36 155H35.68ZM16.32 130.52H93.44L88.48 155H11.36L16.32 130.52Z"/>
</mask>
<path d="M35.68 155L28.8147 153.633L27.1494 162H35.68V155ZM55.68 54.52L61.0087 49.9807L51.6362 38.9782L48.8147 53.1535L55.68 54.52ZM66.72 67.48V74.48H81.8785L72.0487 62.9407L66.72 67.48ZM30.88 67.48L24.0283 66.0469L22.2645 74.48H30.88V67.48ZM36 43V36H30.3126L29.1483 41.5669L36 43ZM89.76 43L96.6241 44.3728L98.2986 36H89.76V43ZM67.36 155V162H73.0986L74.2241 156.373L67.36 155ZM16.32 130.52V123.52H10.5961L9.45941 129.13L16.32 130.52ZM93.44 130.52L100.301 131.91L102.001 123.52H93.44V130.52ZM88.48 155V162H94.2039L95.3406 156.39L88.48 155ZM11.36 155L4.49941 153.61L2.79946 162H11.36V155ZM42.5453 156.367L62.5453 55.8865L48.8147 53.1535L28.8147 153.633L42.5453 156.367ZM50.3513 59.0593L61.3913 72.0193L72.0487 62.9407L61.0087 49.9807L50.3513 59.0593ZM66.72 60.48H30.88V74.48H66.72V60.48ZM37.7317 68.913L42.8517 44.433L29.1483 41.5669L24.0283 66.0469L37.7317 68.913ZM36 50H89.76V36H36V50ZM82.8959 41.6272L60.4959 153.627L74.2241 156.373L96.6241 44.3728L82.8959 41.6272ZM67.36 148H35.68V162H67.36V148ZM16.32 137.52H93.44V123.52H16.32V137.52ZM86.5794 129.13L81.6194 153.61L95.3406 156.39L100.301 131.91L86.5794 129.13ZM88.48 148H11.36V162H88.48V148ZM18.2206 156.39L23.1806 131.91L9.45941 129.13L4.49941 153.61L18.2206 156.39Z" fill="url(#paint0_radial_37_186)" mask="url(#path-1-outside-1_37_186)"/>
</g>
<defs>
<filter id="filter0_d_37_186" x="-4" y="0" width="121" height="203" filterUnits="userSpaceOnUse" color-interpolation-filters="sRGB">
<feFlood flood-opacity="0" result="BackgroundImageFix"/>
<feColorMatrix in="SourceAlpha" type="matrix" values="0 0 0 0 0 0 0 0 0 0 0 0 0 0 0 0 0 0 127 0" result="hardAlpha"/>
<feOffset dy="4"/>
<feGaussianBlur stdDeviation="2"/>
<feComposite in2="hardAlpha" operator="out"/>
<feColorMatrix type="matrix" values="0 0 0 0 0 0 0 0 0 0 0 0 0 0 0 0 0 0 0.25 0"/>
<feBlend mode="normal" in2="BackgroundImageFix" result="effect1_dropShadow_37_186"/>
<feBlend mode="normal" in="SourceGraphic" in2="effect1_dropShadow_37_186" result="shape"/>
</filter>
<radialGradient id="paint0_radial_37_186" cx="0" cy="0" r="1" gradientUnits="userSpaceOnUse" gradientTransform="translate(57 -7) rotate(90) scale(224.5 130.095)">
<stop stop-color="white"/>
<stop offset="0.438264" stop-color="white" stop-opacity="0.483043"/>
<stop offset="1" stop-color="white" stop-opacity="0"/>
</radialGradient>
</defs>
</svg>
