<svg width="102" height="115" viewBox="0 0 102 115" fill="none" xmlns="http://www.w3.org/2000/svg">
<mask id="path-1-outside-1_254_64" maskUnits="userSpaceOnUse" x="-9" y="-7" width="118" height="129" fill="black">
<rect fill="white" x="-9" y="-7" width="118" height="129"/>
<path d="M0.36 115L4.36 95.16L54.44 57.08C58.3867 53.9867 61.4267 51.32 63.56 49.08C65.8 46.7333 67.3467 44.6 68.2 42.68C69.0533 40.6533 69.48 38.6267 69.48 36.6C69.48 33.5067 68.2533 31 65.8 29.08C63.4533 27.16 59.9333 26.2 55.24 26.2C50.8667 26.2 46.8133 27.16 43.08 29.08C39.3467 31 36.04 33.7733 33.16 37.4L12.68 23.8C15.4533 19.2133 19.24 15.2133 24.04 11.8C28.9467 8.27999 34.5467 5.55999 40.84 3.63999C47.24 1.71999 53.9067 0.759993 60.84 0.759993C68.9467 0.759993 76.04 2.09333 82.12 4.76C88.3067 7.42666 93.16 11.1067 96.68 15.8C100.2 20.3867 101.96 25.72 101.96 31.8C101.96 36.28 101.16 40.6 99.56 44.76C97.96 48.8133 95.1867 53.0267 91.24 57.4C87.4 61.7733 82.0133 66.52 75.08 71.64L36.2 101.24L31.72 89.88H93.64L88.52 115H0.36Z"/>
</mask>
<path d="M0.36 115L-6.50193 113.617L-8.19214 122H0.36V115ZM4.36 95.16L0.123064 89.5879L-1.97982 91.1869L-2.50193 93.7766L4.36 95.16ZM54.44 57.08L58.6769 62.6521L58.7178 62.621L58.7582 62.5894L54.44 57.08ZM63.56 49.08L58.4965 44.2467L58.491 44.2524L63.56 49.08ZM68.2 42.68L74.5967 45.523L74.6247 45.46L74.6515 45.3964L68.2 42.68ZM65.8 29.08L61.3673 34.4977L61.4261 34.5458L61.4859 34.5925L65.8 29.08ZM43.08 29.08L46.2814 35.305H46.2814L43.08 29.08ZM33.16 37.4L29.2876 43.2313L34.6435 46.788L38.6418 41.7532L33.16 37.4ZM12.68 23.8L6.68988 20.1781L3.21822 25.9196L8.80762 29.6313L12.68 23.8ZM24.04 11.8L28.0967 17.5047L28.1085 17.4962L28.1204 17.4878L24.04 11.8ZM40.84 3.63999L38.8286 -3.06479L38.813 -3.0601L38.7974 -3.05535L40.84 3.63999ZM82.12 4.76L79.3084 11.1705L79.3288 11.1795L79.3492 11.1883L82.12 4.76ZM96.68 15.8L91.08 20L91.1032 20.031L91.1268 20.0617L96.68 15.8ZM99.56 44.76L106.071 47.3302L106.082 47.3016L106.093 47.2729L99.56 44.76ZM91.24 57.4L86.0433 52.7102L86.0113 52.7456L85.9799 52.7814L91.24 57.4ZM75.08 71.64L70.9217 66.009L70.8805 66.0394L70.8398 66.0704L75.08 71.64ZM36.2 101.24L29.6881 103.808L33.0812 112.412L40.4402 106.81L36.2 101.24ZM31.72 89.88V82.88H21.4348L25.2081 92.4481L31.72 89.88ZM93.64 89.88L100.499 91.278L102.211 82.88H93.64V89.88ZM88.52 115V122H94.2372L95.379 116.398L88.52 115ZM7.22193 116.383L11.2219 96.5435L-2.50193 93.7766L-6.50193 113.617L7.22193 116.383ZM8.59694 100.732L58.6769 62.6521L50.2031 51.5079L0.123064 89.5879L8.59694 100.732ZM58.7582 62.5894C62.8295 59.3983 66.1643 56.4955 68.629 53.9076L58.491 44.2524C56.689 46.1445 53.9438 48.575 50.1218 51.5706L58.7582 62.5894ZM68.6235 53.9133C71.1502 51.2663 73.2891 48.465 74.5967 45.523L61.8033 39.837C61.4042 40.735 60.4498 42.2004 58.4965 44.2467L68.6235 53.9133ZM74.6515 45.3964C75.8358 42.5836 76.48 39.6365 76.48 36.6H62.48C62.48 37.6169 62.2709 38.7231 61.7486 39.9636L74.6515 45.3964ZM76.48 36.6C76.48 31.336 74.2487 26.8032 70.1142 23.5675L61.4859 34.5925C62.258 35.1968 62.48 35.6773 62.48 36.6H76.48ZM70.2327 23.6623C66.1114 20.2903 60.7093 19.2 55.24 19.2V33.2C59.1574 33.2 60.7953 34.0297 61.3673 34.4977L70.2327 23.6623ZM55.24 19.2C49.8011 19.2 44.644 20.4042 39.8786 22.855L46.2814 35.305C48.9826 33.9158 51.9323 33.2 55.24 33.2V19.2ZM39.8786 22.855C35.1732 25.2749 31.1124 28.7223 27.6782 33.0468L38.6418 41.7532C40.9676 38.8244 43.5201 36.7251 46.2814 35.305L39.8786 22.855ZM37.0324 31.5686L16.5524 17.9686L8.80762 29.6313L29.2876 43.2313L37.0324 31.5686ZM18.6701 27.4219C20.9011 23.7322 23.9991 20.4185 28.0967 17.5047L19.9833 6.09531C14.4809 10.0082 10.0055 14.6945 6.68988 20.1781L18.6701 27.4219ZM28.1204 17.4878C32.3542 14.4505 37.2537 12.0526 42.8826 10.3353L38.7974 -3.05535C31.8396 -0.932648 25.5392 2.10952 19.9596 6.11222L28.1204 17.4878ZM42.8514 10.3448C48.5746 8.62782 54.5621 7.75999 60.84 7.75999V-6.24001C53.2512 -6.24001 45.9054 -5.18784 38.8286 -3.06479L42.8514 10.3448ZM60.84 7.75999C68.1876 7.75999 74.2879 8.96854 79.3084 11.1705L84.9316 -1.65052C77.7921 -4.78188 69.7057 -6.24001 60.84 -6.24001V7.75999ZM79.3492 11.1883C84.5832 13.4443 88.3954 16.4205 91.08 20L102.28 11.6C97.9246 5.79278 92.0301 1.40901 84.8908 -1.66827L79.3492 11.1883ZM91.1268 20.0617C93.658 23.3599 94.96 27.1759 94.96 31.8H108.96C108.96 24.2641 106.742 17.4134 102.233 11.5383L91.1268 20.0617ZM94.96 31.8C94.96 35.4254 94.3165 38.8932 93.0266 42.2471L106.093 47.2729C108.003 42.3067 108.96 37.1346 108.96 31.8H94.96ZM93.0489 42.1898C91.8439 45.2427 89.6134 48.7542 86.0433 52.7102L96.4368 62.0898C100.76 57.2992 104.076 52.384 106.071 47.3302L93.0489 42.1898ZM85.9799 52.7814C82.5865 56.6461 77.6252 61.0587 70.9217 66.009L79.2383 77.271C86.4015 71.9813 92.2135 66.9005 96.5001 62.0186L85.9799 52.7814ZM70.8398 66.0704L31.9598 95.6704L40.4402 106.81L79.3202 77.2096L70.8398 66.0704ZM42.7119 98.6719L38.2319 87.3119L25.2081 92.4481L29.6881 103.808L42.7119 98.6719ZM31.72 96.88H93.64V82.88H31.72V96.88ZM86.781 88.482L81.661 113.602L95.379 116.398L100.499 91.278L86.781 88.482ZM88.52 108H0.36V122H88.52V108Z" fill="url(#paint0_radial_254_64)" mask="url(#path-1-outside-1_254_64)"/>
<defs>
<radialGradient id="paint0_radial_254_64" cx="0" cy="0" r="1" gradientUnits="userSpaceOnUse" gradientTransform="translate(54 -47) rotate(90) scale(224.5 130.095)">
<stop stop-color="white"/>
<stop offset="0.438264" stop-color="white" stop-opacity="0.483043"/>
<stop offset="1" stop-color="white" stop-opacity="0"/>
</radialGradient>
</defs>
</svg>
