<svg width="113" height="115" viewBox="0 0 113 115" fill="none" xmlns="http://www.w3.org/2000/svg">
<mask id="path-1-outside-1_254_197" maskUnits="userSpaceOnUse" x="-10" y="-7" width="131" height="129" fill="black">
<rect fill="white" x="-10" y="-7" width="131" height="129"/>
<path d="M46.76 114.24C37.5867 114.24 28.8933 113.173 20.68 111.04C12.5733 108.8 5.8 105.76 0.36 101.92L15.88 78.24C20.68 81.5467 25.9067 84.1067 31.56 85.92C37.32 87.7333 43.4533 88.64 49.96 88.64C56.5733 88.64 61.6933 87.52 65.32 85.28C69.0533 82.9333 70.92 79.68 70.92 75.52C70.92 72.4267 69.64 70.08 67.08 68.48C64.6267 66.88 60.8933 66.08 55.88 66.08H39.88L43.88 46.08L81.48 13.6L83.88 24.48H21.16L26.12 -7.62939e-06H112.36L108.36 19.84L70.76 52.32L57.48 43.84H64.52C72.4133 43.84 79.1867 45.0667 84.84 47.52C90.6 49.8667 95.0267 53.28 98.12 57.76C101.213 62.24 102.76 67.52 102.76 73.6C102.76 81.3867 100.413 88.3733 95.72 94.56C91.1333 100.64 84.6267 105.44 76.2 108.96C67.88 112.48 58.0667 114.24 46.76 114.24Z"/>
</mask>
<path d="M20.68 111.04L18.8157 117.787L18.8678 117.802L18.9202 117.815L20.68 111.04ZM0.36 101.92L-5.4946 98.0829L-9.2016 103.739L-3.67678 107.639L0.36 101.92ZM15.88 78.24L19.8511 72.4754L13.9521 68.4116L10.0254 74.4029L15.88 78.24ZM31.56 85.92L29.422 92.5855L29.44 92.5913L29.458 92.5969L31.56 85.92ZM65.32 85.28L68.9985 91.2356L69.0219 91.2211L69.0452 91.2065L65.32 85.28ZM67.08 68.48L63.2561 74.3433L63.3127 74.3802L63.37 74.416L67.08 68.48ZM39.88 66.08L33.0159 64.7072L31.3414 73.08H39.88V66.08ZM43.88 46.08L39.3041 40.7827L37.4869 42.3525L37.0159 44.7072L43.88 46.08ZM81.48 13.6L88.3157 12.0921L85.7871 0.629318L76.9041 8.30275L81.48 13.6ZM83.88 24.48V31.48H92.5924L90.7157 22.9721L83.88 24.48ZM21.16 24.48L14.2994 23.0899L12.5995 31.48H21.16V24.48ZM26.12 -7.62939e-06V-7.00001H20.3961L19.2594 -1.39006L26.12 -7.62939e-06ZM112.36 -7.62939e-06L119.222 1.38345L120.912 -7.00001H112.36V-7.62939e-06ZM108.36 19.84L112.936 25.1372L114.749 23.5715L115.222 21.2234L108.36 19.84ZM70.76 52.32L66.9927 58.2198L71.3888 61.0269L75.3359 57.6172L70.76 52.32ZM57.48 43.84V36.84H33.5112L53.7127 49.7398L57.48 43.84ZM84.84 47.52L82.0534 53.9414L82.1258 53.9728L82.1989 54.0026L84.84 47.52ZM98.12 57.76L103.88 53.7827L98.12 57.76ZM95.72 94.56L90.1432 90.3293L90.1375 90.3368L90.1318 90.3443L95.72 94.56ZM76.2 108.96L73.5019 102.501L73.4872 102.507L73.4725 102.513L76.2 108.96ZM46.76 107.24C38.1327 107.24 30.034 106.237 22.4398 104.265L18.9202 117.815C27.7526 120.109 37.0406 121.24 46.76 121.24V107.24ZM22.5443 104.293C15.02 102.214 9.0297 99.4715 4.39678 96.2012L-3.67678 107.639C2.5703 112.048 10.1267 115.386 18.8157 117.787L22.5443 104.293ZM6.2146 105.757L21.7346 82.0771L10.0254 74.4029L-5.4946 98.0829L6.2146 105.757ZM11.9089 84.0046C17.2831 87.7068 23.1291 90.567 29.422 92.5855L33.698 79.2545C28.6842 77.6463 24.0769 75.3865 19.8511 72.4754L11.9089 84.0046ZM29.458 92.5969C35.9488 94.6404 42.7954 95.64 49.96 95.64V81.64C44.1112 81.64 38.6912 80.8263 33.662 79.2431L29.458 92.5969ZM49.96 95.64C57.2142 95.64 63.8153 94.4369 68.9985 91.2356L61.6416 79.3244C59.5714 80.6031 55.9325 81.64 49.96 81.64V95.64ZM69.0452 91.2065C74.6691 87.6714 77.92 82.2562 77.92 75.52H63.92C63.92 77.1037 63.4376 78.1952 61.5948 79.3535L69.0452 91.2065ZM77.92 75.52C77.92 70.0856 75.4574 65.4611 70.79 62.544L63.37 74.416C63.5789 74.5466 63.6903 74.6474 63.7429 74.7015C63.7925 74.7524 63.8086 74.7807 63.8147 74.792C63.8212 74.8038 63.8431 74.8457 63.8661 74.9433C63.8901 75.0453 63.92 75.2297 63.92 75.52H77.92ZM70.9039 62.6167C66.7619 59.9154 61.3947 59.08 55.88 59.08V73.08C60.392 73.08 62.4914 73.8446 63.2561 74.3433L70.9039 62.6167ZM55.88 59.08H39.88V73.08H55.88V59.08ZM46.7441 67.4528L50.7441 47.4528L37.0159 44.7072L33.0159 64.7072L46.7441 67.4528ZM48.4559 51.3773L86.0559 18.8973L76.9041 8.30275L39.3041 40.7827L48.4559 51.3773ZM74.6443 15.1079L77.0443 25.9879L90.7157 22.9721L88.3157 12.0921L74.6443 15.1079ZM83.88 17.48H21.16V31.48H83.88V17.48ZM28.0206 25.87L32.9806 1.39005L19.2594 -1.39006L14.2994 23.0899L28.0206 25.87ZM26.12 6.99999H112.36V-7.00001H26.12V6.99999ZM105.498 -1.38346L101.498 18.4565L115.222 21.2234L119.222 1.38345L105.498 -1.38346ZM103.784 14.5427L66.1841 47.0227L75.3359 57.6172L112.936 25.1372L103.784 14.5427ZM74.5273 46.4202L61.2473 37.9402L53.7127 49.7398L66.9927 58.2198L74.5273 46.4202ZM57.48 50.84H64.52V36.84H57.48V50.84ZM64.52 50.84C71.7132 50.84 77.4892 51.9607 82.0534 53.9414L87.6267 41.0986C80.8841 38.1726 73.1134 36.84 64.52 36.84V50.84ZM82.1989 54.0026C86.8823 55.9107 90.1463 58.5317 92.3597 61.7373L103.88 53.7827C99.907 48.0283 94.3177 43.8226 87.4811 41.0374L82.1989 54.0026ZM92.3597 61.7373C94.5529 64.9136 95.76 68.7681 95.76 73.6H109.76C109.76 66.2719 107.874 59.5664 103.88 53.7827L92.3597 61.7373ZM95.76 73.6C95.76 79.8634 93.9104 85.3634 90.1432 90.3293L101.297 98.7907C106.916 91.3833 109.76 82.9099 109.76 73.6H95.76ZM90.1318 90.3443C86.4288 95.2529 81.0119 99.3638 73.5019 102.501L78.8981 115.419C88.2415 111.516 95.8379 106.027 101.308 98.7757L90.1318 90.3443ZM73.4725 102.513C66.2031 105.589 57.3575 107.24 46.76 107.24V121.24C58.7759 121.24 69.5569 119.371 78.9275 115.407L73.4725 102.513Z" fill="url(#paint0_radial_254_197)" mask="url(#path-1-outside-1_254_197)"/>
<defs>
<radialGradient id="paint0_radial_254_197" cx="0" cy="0" r="1" gradientUnits="userSpaceOnUse" gradientTransform="translate(58 -50) rotate(90) scale(224.5 130.095)">
<stop stop-color="white"/>
<stop offset="0.438264" stop-color="white" stop-opacity="0.483043"/>
<stop offset="1" stop-color="white" stop-opacity="0"/>
</radialGradient>
</defs>
</svg>
