<svg width="35" height="35" viewBox="0 0 35 35" fill="none" xmlns="http://www.w3.org/2000/svg">
<path d="M22.9012 18.4949L15.8699 25.5262C15.7393 25.6568 15.5842 25.7605 15.4134 25.8312C15.2427 25.9019 15.0598 25.9383 14.875 25.9383C14.6902 25.9383 14.5073 25.9019 14.3366 25.8312C14.1658 25.7605 14.0107 25.6568 13.8801 25.5262C13.7494 25.3955 13.6458 25.2404 13.5751 25.0697C13.5044 24.899 13.468 24.716 13.468 24.5312C13.468 24.3465 13.5044 24.1635 13.5751 23.9928C13.6458 23.8221 13.7494 23.667 13.8801 23.5363L18.5119 18.9062H2.21875C1.84579 18.9062 1.4881 18.7581 1.22438 18.4944C0.960658 18.2306 0.8125 17.873 0.8125 17.5C0.8125 17.127 0.960658 16.7694 1.22438 16.5056C1.4881 16.2419 1.84579 16.0938 2.21875 16.0938H18.5119L13.8801 11.4637C13.6162 11.1998 13.468 10.8419 13.468 10.4688C13.468 10.0956 13.6162 9.7377 13.8801 9.47383C14.1439 9.20996 14.5018 9.06172 14.875 9.06172C15.2482 9.06172 15.6061 9.20996 15.8699 9.47383L22.9012 16.5051C23.0319 16.6357 23.1356 16.7908 23.2064 16.9615C23.2772 17.1322 23.3136 17.3152 23.3136 17.5C23.3136 17.6848 23.2772 17.8678 23.2064 18.0385C23.1356 18.2092 23.0319 18.3643 22.9012 18.4949ZM31.75 0.625H21.9062C21.5333 0.625 21.1756 0.773158 20.9119 1.03688C20.6482 1.3006 20.5 1.65829 20.5 2.03125C20.5 2.40421 20.6482 2.7619 20.9119 3.02562C21.1756 3.28934 21.5333 3.4375 21.9062 3.4375H31.75V31.5625H21.9062C21.5333 31.5625 21.1756 31.7107 20.9119 31.9744C20.6482 32.2381 20.5 32.5958 20.5 32.9688C20.5 33.3417 20.6482 33.6994 20.9119 33.9631C21.1756 34.2268 21.5333 34.375 21.9062 34.375H31.75C32.4959 34.375 33.2113 34.0787 33.7387 33.5512C34.2662 33.0238 34.5625 32.3084 34.5625 31.5625V3.4375C34.5625 2.69158 34.2662 1.97621 33.7387 1.44876C33.2113 0.921316 32.4959 0.625 31.75 0.625Z" fill="white"/>
</svg>
