<svg width="41" height="36" viewBox="0 0 41 36" fill="none" xmlns="http://www.w3.org/2000/svg">
<path d="M39.639 0.603632C39.4212 0.41549 39.1561 0.290364 38.8723 0.241733C38.5886 0.193101 38.297 0.222809 38.0289 0.327656L2.40505 14.2689C1.90018 14.4652 1.47275 14.8202 1.1871 15.2805C0.901461 15.7407 0.773067 16.2813 0.821251 16.8209C0.869436 17.3604 1.09159 17.8697 1.45427 18.2721C1.81695 18.6745 2.30053 18.9481 2.8322 19.0519L12.0625 20.8642V31.1562C12.0607 31.7168 12.2272 32.265 12.5407 32.7298C12.8541 33.1946 13.2999 33.5545 13.8203 33.763C14.3399 33.9752 14.9113 34.0261 15.4602 33.9092C16.0092 33.7922 16.5102 33.5129 16.8982 33.1073L21.349 28.4913L28.4101 34.6718C28.9196 35.1237 29.5766 35.3737 30.2576 35.3749C30.556 35.3747 30.8525 35.3278 31.1365 35.2361C31.6005 35.0888 32.0178 34.8226 32.3468 34.4639C32.6759 34.1053 32.9053 33.6666 33.0121 33.1917L40.147 2.15227C40.2109 1.87233 40.1973 1.58031 40.1078 1.3075C40.0183 1.03468 39.8563 0.791369 39.639 0.603632ZM28.8918 6.93176L13.1435 18.2099L4.42478 16.4995L28.8918 6.93176ZM14.875 31.1562V22.8101L19.2326 26.6316L14.875 31.1562ZM30.2611 32.5624L15.7275 19.8183L36.6455 4.8259L30.2611 32.5624Z" fill="white"/>
</svg>
