<svg width="45" height="29" viewBox="0 0 45 29" fill="none" xmlns="http://www.w3.org/2000/svg">
<path fill-rule="evenodd" clip-rule="evenodd" d="M43.8844 23.6218C42.8644 21.5677 41.5203 19.6911 39.9038 18.0643C39.3631 17.4533 38.797 16.8653 38.2069 16.3018L38.1356 16.2324C37.9166 16.0197 37.7003 15.804 37.4869 15.5856C39.6967 12.5126 41.5877 9.22249 43.1306 5.76619L43.1925 5.62744L43.2356 5.48119C43.44 4.80056 43.6725 3.50681 42.8475 2.33681C41.9925 1.12931 40.6256 0.911811 39.7088 0.911811H35.4956C34.6135 0.87161 33.7412 1.1115 33.0036 1.59714C32.2661 2.08278 31.701 2.78929 31.3894 3.61556C30.4827 5.77489 29.3474 7.83097 28.0031 9.74869V4.81181C28.0031 4.17431 27.9431 3.10556 27.2588 2.20556C26.4413 1.12556 25.2581 0.911811 24.4369 0.911811H17.7506C16.8781 0.891736 16.0314 1.20799 15.3856 1.79508C14.7399 2.38216 14.3447 3.19511 14.2819 4.06556L14.2763 4.14994V4.23431C14.2763 5.14369 14.6363 5.81494 14.925 6.23681C15.0544 6.42619 15.1913 6.59869 15.2794 6.70744L15.2981 6.73181C15.3919 6.84806 15.4538 6.92494 15.5156 7.01119C15.6806 7.23244 15.915 7.57744 15.9825 8.46619V11.2281C14.6403 8.98054 13.5398 6.59726 12.6994 4.11806L12.6844 4.07681L12.6694 4.03744C12.4406 3.43931 12.075 2.56931 11.3419 1.90556C10.4869 1.12744 9.47437 0.911811 8.55375 0.911811H4.27875C3.34688 0.911811 2.22375 1.12931 1.38563 2.01244C0.5625 2.88244 0.46875 3.92494 0.46875 4.47619V4.72744L0.52125 4.97119C1.70494 10.4664 4.14419 15.6131 7.64813 20.0087C9.25008 22.5349 11.4249 24.6479 13.9962 26.1765C16.5675 27.705 19.4629 28.6059 22.4475 28.8062L22.5244 28.8118H22.6031C23.9644 28.8118 25.3838 28.6937 26.4506 27.9831C27.8888 27.0231 28.0031 25.5512 28.0031 24.8162V22.6824C28.3725 22.9824 28.83 23.3837 29.3906 23.9237C30.0694 24.6024 30.6094 25.1912 31.0725 25.7049L31.32 25.9787C31.68 26.3799 32.0344 26.7756 32.3569 27.0999C32.7619 27.5068 33.2625 27.9549 33.8888 28.2868C34.5694 28.6449 35.2838 28.8081 36.0413 28.8081H40.3181C41.22 28.8081 42.5119 28.5943 43.4213 27.5406C44.4113 26.3931 44.3363 24.9849 44.025 23.9743L43.9688 23.7924L43.8844 23.6218ZM33.1594 23.8206C32.5783 23.171 31.9799 22.537 31.365 21.9193L31.3594 21.9137C28.815 19.4612 27.6281 19.0356 26.7881 19.0356C26.34 19.0356 25.8469 19.0843 25.5263 19.4856C25.3819 19.677 25.2872 19.9011 25.2506 20.1381C25.2054 20.4132 25.1853 20.6918 25.1906 20.9706V24.8162C25.1906 25.2943 25.1119 25.4949 24.8906 25.6412C24.5963 25.8381 23.9681 25.9974 22.62 25.9974C20.0591 25.8232 17.5762 25.0436 15.3753 23.7228C13.1744 22.4021 11.3185 20.5778 9.96 18.3999L9.945 18.3756L9.92625 18.3531C6.66209 14.2902 4.38721 9.52414 3.28125 4.43119C3.28875 4.18744 3.34125 4.03931 3.4275 3.94931C3.51562 3.85556 3.73125 3.72431 4.27875 3.72431H8.55375C9.02812 3.72431 9.27563 3.82931 9.45375 3.98869C9.6525 4.17244 9.82875 4.48181 10.0388 5.03306C11.0888 8.11931 12.5063 11.0068 13.8506 13.1274C14.5219 14.1887 15.1819 15.0718 15.7781 15.6962C16.0763 16.0074 16.3669 16.2662 16.6463 16.4499C16.9144 16.6262 17.22 16.7668 17.535 16.7668C17.7 16.7668 17.8931 16.7481 18.0788 16.6674C18.2792 16.5789 18.4442 16.4257 18.5475 16.2324C18.7406 15.8799 18.795 15.3606 18.795 14.6799V8.35556C18.6956 6.82181 18.2325 5.95744 17.7825 5.34431C17.6914 5.22168 17.5976 5.10102 17.5013 4.98244L17.4769 4.95244C17.3969 4.85532 17.3206 4.75525 17.2481 4.65244C17.1558 4.53778 17.1003 4.39793 17.0888 4.25119C17.1035 4.10219 17.1746 3.96445 17.2875 3.86616C17.4004 3.76787 17.5467 3.71645 17.6963 3.72244H24.4369C24.8231 3.72244 24.9525 3.81619 25.0181 3.90431C25.1119 4.02619 25.1906 4.27931 25.1906 4.81181V13.3018C25.1906 14.3106 25.6556 14.9931 26.3306 14.9931C27.1069 14.9931 27.6675 14.5224 28.6463 13.5437L28.6631 13.5249L28.6781 13.5081C30.8737 10.8311 32.6675 7.84852 34.0031 4.65431L34.0106 4.63181C34.111 4.3496 34.3009 4.10796 34.5514 3.94377C34.802 3.77958 35.0993 3.70185 35.3981 3.72244H39.7106C40.2956 3.72244 40.4869 3.87244 40.5506 3.96056C40.6163 4.05431 40.6631 4.25494 40.5506 4.64869C39.0105 8.09185 37.1065 11.3604 34.8713 14.3987L34.8563 14.4212C34.6406 14.7531 34.4025 15.1206 34.3688 15.5406C34.3313 15.9943 34.5263 16.4049 34.8694 16.8474C35.1188 17.2149 35.6344 17.7193 36.1575 18.2312L36.2063 18.2799C36.7537 18.8162 37.3481 19.3974 37.8244 19.9599L37.8375 19.9731L37.8506 19.9881C39.2708 21.4046 40.4517 23.0421 41.3475 24.8368C41.49 25.3243 41.4038 25.5756 41.2913 25.7049C41.1619 25.8549 40.8713 25.9956 40.32 25.9956H36.0413C35.7496 26.0027 35.4611 25.9349 35.2031 25.7987C34.887 25.6148 34.6001 25.3848 34.3519 25.1162C34.0838 24.8481 33.7931 24.5237 33.4369 24.1281L33.1613 23.8206H33.1594Z" fill="white"/>
</svg>
